<svg xmlns="http://www.w3.org/2000/svg" width="640" height="415" viewBox="0 0 640 415"><style>n        .label { font-family: Inter, system-ui, sans-serif; font-size: 14px; fill: #111; text-anchor: middle; dominant-baseline: middle; }n        .lot-label { font-size: 16px; font-weight: 500; }n    </style><rect x="0" y="0" width="640" height="415" fill="#ffffff" /><rect x="20" y="20" width="600.0" height="375.0" fill="#f8f9fa" stroke="#111" stroke-width="2"/><text x="320.0" y="405.0" class="label lot-label">Lot: 80.0ft x 50.0ft</text><rect x="301.25" y="20.0" width="37.5" height="37.5" fill="#f5c16c" stroke="#333" stroke-width="1.5" rx="4" ry="4"/><text x="320.0" y="33.75" class="label" style="font-size:10px;">Entrance</text><text x="320.0" y="47.75" class="label" style="font-size:8.0px; opacity:0.8;">5.0 x 5.0 ft</text><rect x="267.5" y="57.5" width="105.0" height="120.0" fill="#f9dcc4" stroke="#333" stroke-width="1.5" rx="4" ry="4"/><text x="320.0" y="111.2" class="label" style="font-size:12.6px;">Living</text><text x="320.0" y="127.8" class="label" style="font-size:10.08px; opacity:0.8;">14.0 x 16.0 ft</text><rect x="387.5" y="57.5" width="75.0" height="120.0" fill="#f4bfbf" stroke="#333" stroke-width="1.5" rx="4" ry="4"/><text x="425.0" y="112.5" class="label" style="font-size:10px;">Kitchen</text><text x="425.0" y="126.5" class="label" style="font-size:8.0px; opacity:0.8;">10.0 x 16.0 ft</text><rect x="50.0" y="192.5" width="540.0" height="30.0" fill="#d3f8e2" stroke="#333" stroke-width="1.5" rx="4" ry="4"/><text x="320.0" y="202.5" class="label" style="font-size:10px;">Hallway / Circulation</text><text x="320.0" y="216.5" class="label" style="font-size:8.0px; opacity:0.8;">72.0 x 4.0 ft</text><rect x="20.0" y="237.5" width="82.5" height="90.0" fill="#d0bdf4" stroke="#333" stroke-width="1.5" rx="4" ry="4"/><text x="61.25" y="277.5" class="label" style="font-size:10px;">Bedroom 1</text><text x="61.25" y="291.5" class="label" style="font-size:8.0px; opacity:0.8;">11.0 x 12.0 ft</text><rect x="327.5" y="237.5" width="82.5" height="90.0" fill="#d0bdf4" stroke="#333" stroke-width="1.5" rx="4" ry="4"/><text x="368.75" y="277.5" class="label" style="font-size:10px;">Bedroom 2</text><text x="368.75" y="291.5" class="label" style="font-size:8.0px; opacity:0.8;">11.0 x 12.0 ft</text></svg>